# xmcd CD database file
#
# Track frame offsets:
#	150
#	9579
#	39861
#	53764
#	68685
#	77715
#	90090
#	103807
#	119572
#	131249
#
# Disc length: 3695 seconds
#
# Revision: 3
# Processed by: cddbd v1.5.2PL0 Copyright (c) Steve Scherf et al.
# Submitted via: CDex 1.51
#
DISCID=780e6d0a
DTITLE=The Many Faces Of EMERSON LAKE and PALMER - The Originals
DYEAR=2015
DGENRE=Progressive Rock
TTITLE0=Peter Gun(Henry Mancini)
TTITLE1=Blue Rondo A La Turk(Dave Brubeck)
TTITLE2=Scott Joplin - Maple Leaf Rag(Scott Joplin)
TTITLE3=America(Marilyn Cooper, Chita Rivera and Shark Girls)
TTITLE4=Nutrocker(B. Bumble and The Stingers)
TTITLE5=Nutrocker(Landsmeer Symphony Orchestra)
TTITLE6=Fanfare For The Common Man(Royal Philharmonic Orchestra)
TTITLE7=Hoedown(Royal Philharmonic Orchestra)
TTITLE8=Jersusalem(Royal Philharmonic Orchestra)
TTITLE9=Pictures At An Exhibition(Landsmeer Symphony Orchestra)
EXTD=YEAR: 2015
EXTT0=
EXTT1=
EXTT2=
EXTT3=
EXTT4=
EXTT5=
EXTT6=
EXTT7=
EXTT8=
EXTT9=
PLAYORDER=
